<svg height="256px" viewBox="-61 0 512 512" width="256px" xmlns="http://www.w3.org/2000/svg"><path d="m195 211c-33.089844 0-60 26.910156-60 60h120c0-33.089844-26.910156-60-60-60zm0 0"/><path d="m195 0c-107.519531 0-195 88.480469-195 196 0 42.554688 13.460938 82.984375 39.109375 117.15625l155.890625 198.84375 156.078125-199.089844c25.460937-33.925781 38.921875-74.355468 38.921875-116.910156 0-105.800781-84.484375-196-195-196zm90 301h-180v-30c0-49.628906 40.371094-90 90-90-33.089844 0-60-26.910156-60-60s26.910156-60 60-60 60 26.910156 60 60-26.910156 60-60 60c49.628906 0 90 40.371094 90 90zm0 0"/><path d="m195 91c-16.539062 0-30 13.460938-30 30s13.460938 30 30 30 30-13.460938 30-30-13.460938-30-30-30zm0 0"/></svg>